<?xml version="1.0" encoding="UTF-8"?>
<svg xmlns="http://www.w3.org/2000/svg" xmlns:xlink="http://www.w3.org/1999/xlink" width="646.47pt" height="733.73pt" viewBox="0 0 646.47 733.73" version="1.1">
<defs>
<clipPath id="clip1">
  <path d="M 583 304 L 646.46875 304 L 646.46875 414 L 583 414 Z M 583 304 "/>
</clipPath>
<clipPath id="clip2">
  <path d="M 417 691 L 424 691 L 424 733.730469 L 417 733.730469 Z M 417 691 "/>
</clipPath>
<clipPath id="clip3">
  <path d="M 429 691 L 435 691 L 435 733.730469 L 429 733.730469 Z M 429 691 "/>
</clipPath>
<clipPath id="clip4">
  <path d="M 351 702 L 388 702 L 388 733.730469 L 351 733.730469 Z M 351 702 "/>
</clipPath>
<clipPath id="clip5">
  <path d="M 389 702 L 415 702 L 415 733.730469 L 389 733.730469 Z M 389 702 "/>
</clipPath>
<clipPath id="clip6">
  <path d="M 463 693 L 480 693 L 480 733.730469 L 463 733.730469 Z M 463 693 "/>
</clipPath>
<clipPath id="clip7">
  <path d="M 438 702 L 464 702 L 464 733.730469 L 438 733.730469 Z M 438 702 "/>
</clipPath>
</defs>
<g id="surface1">
<path style=" stroke:none;fill-rule:nonzero;fill:rgb(95.298767%,50.19989%,12.199402%);fill-opacity:1;" d="M 540.296875 334.871094 C 540.296875 334.871094 542.464844 319.109375 556.414063 319.109375 C 570.003906 319.109375 572.328125 334.871094 572.328125 334.871094 Z M 588.089844 336.96875 C 586.195313 320.28125 576.316406 302.96875 554.890625 302.96875 C 554.890625 302.96875 526.050781 302.960938 523.746094 342.058594 C 523.699219 342.835938 523.742188 343.621094 523.777344 344.394531 C 523.859375 346.421875 524.066406 348.441406 524.371094 350.445313 C 524.796875 353.242188 525.421875 356.007813 526.28125 358.703125 C 527.273438 361.816406 528.578125 364.84375 530.261719 367.648438 C 532.085938 370.691406 534.363281 373.472656 537.066406 375.773438 C 540.109375 378.367188 543.660156 380.308594 547.449219 381.566406 C 549.816406 382.351563 552.3125 382.945313 554.792969 383.1875 C 558.195313 383.523438 561.628906 383.054688 564.9375 382.234375 C 570.253906 380.921875 575.179688 378.355469 579.292969 374.726563 C 581.003906 373.21875 582.667969 371.527344 583.929688 369.613281 C 583.929688 369.613281 586.597656 365.578125 585.113281 361.546875 C 584.175781 358.996094 582.265625 356.660156 579.386719 356.40625 C 576.101563 356.113281 574.230469 358.640625 572.1875 360.742188 C 572.1875 360.742188 567.128906 367.054688 557.207031 367.054688 C 551.035156 367.054688 546.433594 364.1875 543.460938 359.476563 C 541.5 356.371094 540.316406 352.316406 540.097656 348.660156 L 567.035156 348.660156 C 570.339844 348.660156 573.640625 348.644531 576.941406 348.660156 C 578.046875 348.664063 579.15625 348.644531 580.261719 348.707031 C 581.359375 348.765625 582.5 348.773438 583.566406 348.476563 C 584.894531 348.101563 586.339844 347.015625 587.074219 345.867188 C 588.765625 343.234375 588.429688 339.96875 588.089844 336.96875 "/>
<g clip-path="url(#clip1)" clip-rule="nonzero">
<path style=" stroke:none;fill-rule:nonzero;fill:rgb(95.298767%,50.19989%,12.199402%);fill-opacity:1;" d="M 587.9375 319.011719 C 588.179688 319.726563 588.4375 320.441406 588.699219 321.152344 C 588.699219 322.019531 589.492188 323.320313 589.789063 324.144531 L 590.941406 327.289063 C 591.710938 329.390625 592.476563 331.488281 593.246094 333.585938 C 594.742188 337.679688 596.253906 341.769531 597.785156 345.851563 C 599.511719 350.445313 601.257813 355.035156 603.023438 359.613281 C 603.925781 361.949219 604.828125 364.277344 605.742188 366.609375 C 606.1875 367.75 606.636719 368.890625 607.085938 370.035156 C 607.3125 370.605469 607.539063 371.179688 607.765625 371.75 C 607.875 372.035156 608.546875 373.207031 608.441406 373.46875 C 607.105469 376.84375 605.65625 380.199219 603.765625 383.304688 C 601.410156 387.175781 598.15625 390.578125 594.664063 393.449219 C 593.910156 394.070313 591.363281 396.035156 590.53125 396.554688 C 588.757813 397.65625 586.917969 398.40625 585.515625 400.011719 C 584.132813 401.59375 583.371094 403.574219 583.371094 405.679688 C 583.371094 407.402344 583.773438 409.128906 584.710938 410.585938 C 585.488281 411.792969 586.539063 412.804688 587.804688 413.488281 C 589.117188 414.195313 590.8125 413.976563 592.1875 413.53125 C 593.503906 413.109375 594.714844 412.410156 595.890625 411.6875 C 601.042969 408.5 605.835938 404.65625 609.886719 400.140625 C 610.289063 399.695313 610.671875 399.238281 611.046875 398.773438 C 611.484375 398.234375 611.914063 397.6875 612.308594 397.117188 C 612.308594 397.117188 618.816406 388.640625 622.667969 378.707031 C 626.523438 368.777344 631.230469 355.847656 631.230469 355.847656 C 634.503906 347.160156 637.746094 338.460938 641.058594 329.789063 C 642.238281 326.699219 643.421875 323.609375 644.601563 320.515625 C 645.851563 317.25 647.113281 313.683594 646.101563 310.339844 C 644.730469 305.820313 638.5 302.734375 634.84375 306.636719 C 633.476563 308.097656 632.738281 310.023438 632.035156 311.894531 C 628.847656 320.371094 625.664063 328.851563 622.503906 337.335938 C 621.144531 340.972656 619.789063 344.609375 618.4375 348.246094 C 618.160156 348.984375 616.40625 352.132813 616.699219 352.90625 C 615.039063 348.539063 613.375 344.167969 611.714844 339.800781 C 608.644531 331.734375 605.558594 323.671875 602.53125 315.589844 C 601.796875 313.625 601.050781 311.664063 600.265625 309.71875 C 599.574219 308.007813 598.339844 306.472656 596.710938 305.570313 C 594.285156 304.222656 590.996094 304.851563 589.054688 306.78125 C 587.253906 308.570313 586.613281 311.273438 586.78125 313.808594 C 586.894531 315.585938 587.367188 317.3125 587.9375 319.011719 "/>
</g>
<path style=" stroke:none;fill-rule:nonzero;fill:rgb(95.298767%,50.19989%,12.199402%);fill-opacity:1;" d="M 284.253906 311.933594 C 284.144531 312.945313 284.152344 313.976563 284.160156 314.988281 C 284.1875 317.917969 284.1875 320.84375 284.1875 323.773438 L 284.1875 362.082031 C 284.1875 364.210938 284.191406 366.339844 284.195313 368.46875 C 284.195313 370.425781 284.070313 372.429688 284.308594 374.375 C 284.5625 376.476563 285.273438 378.539063 286.699219 380.140625 C 287.917969 381.511719 289.589844 382.316406 291.414063 382.476563 C 291.671875 382.496094 291.921875 382.507813 292.179688 382.507813 C 294.570313 382.507813 296.648438 381.359375 298.011719 379.414063 C 299.167969 377.765625 299.773438 375.820313 300.035156 373.84375 C 300.316406 371.753906 300.238281 369.648438 300.21875 367.546875 C 300.203125 365.800781 300.207031 364.050781 300.210938 362.304688 C 300.214844 360.582031 300.210938 358.859375 300.210938 357.140625 L 300.210938 336.511719 C 300.210938 334.386719 300.152344 332.3125 300.632813 330.226563 C 301.265625 327.460938 302.523438 324.652344 304.664063 322.726563 C 306.65625 320.9375 309.242188 320.082031 311.890625 319.96875 C 312.121094 319.957031 312.347656 319.953125 312.578125 319.953125 C 315.238281 319.953125 317.863281 320.71875 319.890625 322.488281 C 321.652344 324.027344 322.777344 326.113281 323.546875 328.296875 C 324.628906 331.375 324.621094 334.695313 324.613281 337.917969 C 324.613281 344.332031 324.597656 350.746094 324.597656 357.160156 L 324.597656 373.8125 C 324.597656 373.8125 325.296875 382.507813 332.472656 382.507813 C 339.652344 382.507813 340.28125 374.511719 340.28125 374.511719 L 340.28125 336.125 C 340.28125 336.125 340.453125 319.9375 353.808594 319.9375 C 366.199219 319.898438 365.085938 335.777344 365.085938 335.777344 L 365.085938 374.71875 C 365.085938 374.71875 366.105469 382.507813 372.9375 382.507813 C 379.769531 382.507813 380.714844 374.871094 380.714844 374.871094 L 380.714844 332.238281 C 380.714844 332.238281 379.820313 302.976563 357.425781 302.976563 C 341.148438 302.976563 335.605469 315.984375 335.449219 315.953125 C 335.394531 315.941406 335.320313 315.734375 335.296875 315.695313 C 335.175781 315.460938 335.050781 315.222656 334.921875 314.992188 C 334.722656 314.632813 334.519531 314.277344 334.304688 313.929688 C 334.027344 313.480469 333.738281 313.035156 333.4375 312.601563 C 333.078125 312.085938 332.703125 311.585938 332.304688 311.09375 C 331.863281 310.542969 331.394531 310.011719 330.90625 309.496094 C 330.371094 308.9375 329.804688 308.402344 329.21875 307.898438 C 328.589844 307.359375 327.925781 306.855469 327.238281 306.390625 C 326.503906 305.898438 325.742188 305.449219 324.949219 305.058594 C 322.585938 303.882813 319.980469 303.199219 317.347656 303.050781 C 316.671875 303.011719 315.984375 302.972656 315.308594 302.976563 C 313.628906 302.992188 311.996094 303.3125 310.429688 303.914063 C 309.523438 304.261719 308.652344 304.699219 307.820313 305.195313 C 306.996094 305.683594 306.214844 306.234375 305.472656 306.835938 C 304.605469 307.535156 303.789063 308.300781 303.027344 309.113281 C 302.136719 310.0625 301.3125 311.078125 300.550781 312.132813 C 300.453125 312.273438 300.355469 312.410156 300.257813 312.550781 C 300.257813 312.550781 299.320313 303.53125 292.351563 303.53125 C 289.539063 303.53125 287.226563 305.078125 285.8125 307.453125 C 285.296875 308.328125 284.839844 309.308594 284.5625 310.289063 C 284.410156 310.828125 284.3125 311.378906 284.253906 311.933594 "/>
<path style=" stroke:none;fill-rule:nonzero;fill:rgb(95.298767%,50.19989%,12.199402%);fill-opacity:1;" d="M 419.117188 366.40625 C 409.34375 366.40625 401.421875 355.957031 401.421875 343.066406 C 401.421875 330.179688 409.34375 319.730469 419.117188 319.730469 C 428.890625 319.730469 436.8125 330.179688 436.8125 343.066406 C 436.8125 355.957031 428.890625 366.40625 419.117188 366.40625 M 419.117188 302.863281 C 400.8125 302.863281 385.976563 320.839844 385.976563 343.011719 C 385.976563 365.183594 400.8125 383.160156 419.117188 383.160156 C 437.417969 383.160156 452.257813 365.183594 452.257813 343.011719 C 452.257813 320.839844 437.417969 302.863281 419.117188 302.863281 "/>
<path style=" stroke:none;fill-rule:nonzero;fill:rgb(95.298767%,50.19989%,12.199402%);fill-opacity:1;" d="M 473.1875 312.734375 C 473.1875 311.105469 472.800781 309.488281 472.003906 308.066406 C 470.855469 306.015625 468.710938 303.664063 464.921875 303.664063 C 462.617188 303.667969 460.648438 304.851563 459.339844 306.710938 C 458.8125 307.460938 458.390625 308.285156 458.058594 309.140625 C 457.5625 310.402344 457.382813 311.621094 457.386719 312.980469 L 457.386719 313.128906 C 457.386719 316.078125 457.398438 319.027344 457.398438 321.980469 L 457.398438 371.078125 C 457.398438 372.789063 457.242188 374.476563 457.722656 376.15625 C 458.742188 379.71875 461.652344 382.550781 465.476563 382.550781 C 472.203125 382.550781 473.039063 375.023438 473.039063 375.023438 L 473.039063 338.761719 C 473.039063 336.804688 473.300781 334.859375 473.824219 332.980469 C 475.226563 327.960938 478.644531 319.757813 488.351563 319.757813 C 491.550781 319.757813 494.644531 320.792969 497.019531 322.976563 C 498.984375 324.785156 500.339844 327.171875 501.253906 329.660156 C 502.988281 334.378906 502.816406 339.316406 502.773438 344.253906 C 502.761719 345.714844 502.746094 347.171875 502.746094 348.632813 L 502.746094 369.027344 C 502.746094 371.53125 502.355469 374.097656 503.210938 376.515625 C 504.382813 379.839844 507.300781 382.550781 510.957031 382.550781 C 513.59375 382.550781 515.777344 381.144531 517.066406 378.878906 C 518.398438 376.53125 518.503906 374.117188 518.507813 371.460938 C 518.519531 366.003906 518.484375 360.546875 518.484375 355.089844 L 518.484375 339.515625 C 518.484375 333.4375 517.835938 327.5 515.808594 321.71875 C 514.378906 317.652344 512.390625 313.714844 509.554688 310.445313 C 506.4375 306.851563 502.308594 304.304688 497.613281 303.390625 C 496.125 303.101563 494.605469 302.96875 493.089844 302.96875 C 480.757813 302.96875 474.460938 311.351563 473.425781 312.808594 C 473.378906 312.871094 473.1875 312.816406 473.1875 312.734375 "/>
<path style=" stroke:none;fill-rule:nonzero;fill:rgb(50.19989%,50.19989%,51.399231%);fill-opacity:1;" d="M 341.46875 484.777344 C 341.367188 484.074219 341.445313 483.273438 341.445313 482.582031 L 341.445313 405.1875 C 341.445313 403.851563 342.007813 402.503906 342.9375 401.542969 C 343.886719 400.558594 345.203125 400.105469 346.550781 400.058594 C 346.636719 400.054688 346.722656 400.050781 346.8125 400.050781 C 348.1875 400.050781 349.535156 400.484375 350.535156 401.460938 C 351.699219 402.601563 352.273438 404.152344 352.269531 405.765625 C 352.265625 407.246094 352.265625 408.726563 352.265625 410.207031 L 352.265625 481.390625 C 352.265625 482.585938 352.40625 483.882813 352.121094 485.039063 C 351.511719 487.539063 349.417969 489.175781 346.855469 489.175781 C 344.4375 489.175781 342.234375 487.582031 341.5625 485.226563 C 341.519531 485.082031 341.488281 484.933594 341.46875 484.777344 "/>
<path style=" stroke:none;fill-rule:nonzero;fill:rgb(50.19989%,50.19989%,51.399231%);fill-opacity:1;" d="M 365.140625 484.777344 C 365.039063 484.074219 365.117188 483.273438 365.117188 482.582031 L 365.117188 405.1875 C 365.117188 403.851563 365.679688 402.503906 366.609375 401.542969 C 367.558594 400.558594 368.871094 400.105469 370.222656 400.058594 C 370.308594 400.054688 370.394531 400.050781 370.484375 400.050781 C 371.859375 400.050781 373.210938 400.484375 374.203125 401.460938 C 375.371094 402.601563 375.945313 404.152344 375.941406 405.765625 C 375.9375 407.246094 375.9375 408.726563 375.9375 410.207031 L 375.9375 481.390625 C 375.9375 482.585938 376.078125 483.882813 375.796875 485.039063 C 375.183594 487.539063 373.089844 489.175781 370.527344 489.175781 C 368.109375 489.175781 365.90625 487.582031 365.234375 485.226563 C 365.191406 485.082031 365.160156 484.933594 365.140625 484.777344 "/>
<path style=" stroke:none;fill-rule:nonzero;fill:rgb(50.19989%,50.19989%,51.399231%);fill-opacity:1;" d="M 254.503906 470.179688 C 254.375 469.640625 254.246094 469.105469 254.121094 468.570313 C 253.863281 467.496094 253.609375 466.425781 253.355469 465.351563 C 252.847656 463.207031 252.347656 461.0625 251.847656 458.914063 C 250.710938 454.011719 249.539063 449.011719 248.390625 444.070313 C 247.238281 439.136719 246.234375 434.140625 244.890625 429.257813 C 244.808594 428.960938 244.726563 428.667969 244.636719 428.375 C 244.261719 427.125 243.742188 425.910156 242.742188 425.027344 C 241.261719 423.710938 238.816406 423.515625 236.855469 423.792969 C 235.441406 423.992188 233.992188 424.453125 233.015625 425.492188 C 232 426.574219 231.640625 428.09375 231.320313 429.539063 C 228.210938 443.59375 225.097656 457.644531 221.984375 471.699219 C 218.632813 458.226563 215.277344 444.75 211.925781 431.277344 C 211.246094 428.558594 210.339844 425.53125 207.867188 424.21875 C 205.648438 423.035156 202.636719 423.960938 201.269531 426.015625 C 199.335938 428.917969 200.242188 432.53125 201.128906 435.632813 C 205.671875 451.511719 210.210938 467.390625 214.75 483.269531 C 215.257813 485.039063 215.839844 486.933594 217.292969 488.070313 C 218.480469 488.996094 220.058594 489.25 221.5625 489.320313 C 223.355469 489.402344 225.308594 489.195313 226.625 487.976563 C 227.800781 486.882813 228.214844 485.21875 228.570313 483.652344 L 237.71875 443.472656 C 237.746094 443.355469 237.902344 443.363281 237.933594 443.480469 C 240.933594 455.273438 243.679688 467.125 246.480469 478.964844 C 246.867188 480.613281 247.253906 482.257813 247.636719 483.902344 C 247.941406 485.199219 248.277344 486.558594 249.15625 487.5625 C 250.339844 488.90625 252.253906 489.328125 254.042969 489.371094 C 255.460938 489.402344 256.929688 489.226563 258.140625 488.492188 C 260.015625 487.367188 260.929688 485.15625 261.425781 483.023438 C 262.863281 476.8125 264.742188 470.699219 266.476563 464.550781 C 269.210938 454.828125 272.316406 445.199219 274.820313 435.417969 C 275.054688 434.507813 275.28125 433.59375 275.5 432.679688 C 275.738281 431.667969 275.96875 430.625 276.023438 429.59375 C 276.097656 428.132813 275.816406 426.695313 274.714844 425.417969 C 273.675781 424.21875 272.109375 423.585938 270.523438 423.691406 C 266.203125 423.980469 265.214844 428.910156 264.460938 432.277344 C 261.5 445.460938 258.136719 458.804688 254.878906 471.722656 "/>
<path style=" stroke:none;fill-rule:nonzero;fill:rgb(50.19989%,50.19989%,51.399231%);fill-opacity:1;" d="M 317.847656 467.121094 C 317.46875 470.085938 315.976563 472.804688 313.816406 474.847656 C 312.785156 475.824219 311.605469 476.644531 310.324219 477.257813 C 306.566406 479.046875 301.921875 479.449219 297.890625 478.4375 C 294.035156 477.472656 292.066406 474.367188 292.226563 470.460938 C 292.359375 467.207031 294.039063 464.46875 296.769531 462.777344 C 299.332031 461.1875 302.289063 460.464844 305.226563 459.941406 C 309.058594 459.261719 313.050781 458.796875 316.691406 457.359375 C 316.992188 457.238281 317.410156 457.066406 317.898438 456.832031 C 317.898438 458.605469 317.898438 460.382813 317.902344 462.160156 C 317.910156 463.800781 318.054688 465.488281 317.847656 467.121094 M 332.324219 479.171875 C 331.347656 478.734375 330.09375 478.863281 329.378906 478.0625 C 328.722656 477.328125 328.699219 476.078125 328.703125 475.089844 C 328.769531 465.644531 328.832031 456.203125 328.898438 446.757813 C 328.921875 443.128906 328.941406 439.457031 328.117188 435.925781 C 327.285156 432.390625 325.515625 428.949219 322.582031 426.8125 C 320.261719 425.121094 317.398438 424.359375 314.574219 423.847656 C 308.796875 422.800781 302.722656 422.679688 297.15625 424.558594 C 292.984375 425.96875 289.128906 428.601563 286.585938 432.226563 C 284.914063 434.613281 283.367188 438.019531 283.695313 441.09375 C 283.816406 442.242188 284.199219 443.347656 284.941406 444.335938 C 286.679688 446.65625 290.457031 447.367188 292.582031 445.398438 C 294.503906 443.617188 294.511719 440.601563 295.777344 438.3125 C 297.546875 435.117188 301.5 433.808594 305.144531 433.613281 C 308.738281 433.417969 312.570313 434.136719 315.242188 436.542969 C 317.921875 438.949219 318.96875 443.347656 316.859375 446.265625 C 315.453125 448.214844 313.03125 449.132813 310.703125 449.742188 C 305.960938 450.992188 301.027344 451.414063 296.28125 452.667969 C 291.539063 453.921875 286.808594 456.179688 283.976563 460.183594 C 281.253906 464.023438 280.625 469.015625 281.097656 473.699219 C 281.453125 477.238281 282.441406 480.816406 284.640625 483.609375 C 287.417969 487.136719 291.855469 489.042969 296.304688 489.621094 C 304.488281 490.6875 313.109375 487.449219 318.5625 481.257813 C 318.652344 483.769531 319.847656 486.222656 321.769531 487.839844 C 323.695313 489.453125 326.308594 490.183594 328.796875 489.839844 C 331.277344 489.496094 333.886719 488.050781 334.597656 485.644531 C 335.277344 483.335938 334.609375 480.195313 332.324219 479.171875 "/>
<path style=" stroke:none;fill-rule:nonzero;fill:rgb(50.19989%,50.19989%,51.399231%);fill-opacity:1;" d="M 448.386719 424.570313 C 448.382813 424.1875 448.382813 423.800781 448.382813 423.421875 C 448.382813 422.464844 448.378906 421.511719 448.378906 420.5625 C 448.375 419.335938 448.371094 418.105469 448.367188 416.878906 C 448.367188 415.671875 448.363281 414.464844 448.363281 413.257813 C 448.359375 412.367188 448.359375 411.476563 448.355469 410.585938 C 448.355469 409.964844 448.371094 409.390625 448.5625 408.800781 C 448.691406 408.394531 448.863281 408 449.082031 407.632813 C 449.6875 406.613281 450.632813 405.859375 451.757813 405.488281 C 452.429688 405.265625 453.144531 405.175781 453.851563 405.175781 C 455.175781 405.175781 456.484375 405.578125 457.433594 406.53125 C 459.03125 408.140625 459.113281 410.46875 459.066406 412.59375 C 459.03125 414.121094 459.050781 415.652344 459.050781 417.179688 L 459.050781 424.601563 L 464.6875 424.601563 C 465.410156 424.601563 466.113281 424.542969 466.800781 424.808594 C 468.816406 425.578125 470.082031 427.363281 470.21875 429.503906 C 470.230469 429.660156 470.234375 429.820313 470.234375 429.976563 C 470.234375 431.84375 469.453125 433.589844 467.863281 434.613281 C 467.601563 434.785156 467.328125 434.914063 467.050781 435.046875 C 466.460938 435.320313 465.894531 435.371094 465.25 435.371094 C 463.199219 435.363281 461.148438 435.363281 459.097656 435.363281 L 459.097656 474.0625 C 459.097656 474.0625 459.242188 478.648438 464.257813 478.648438 C 469.269531 478.648438 471.886719 478.292969 471.886719 483.792969 C 471.886719 485.324219 471.46875 486.714844 470.273438 487.730469 C 468.984375 488.828125 467.246094 489.21875 465.617188 489.175781 C 463.65625 489.121094 461.769531 489.246094 459.820313 488.925781 C 458.050781 488.636719 456.355469 487.964844 454.796875 487.085938 C 452.140625 485.589844 449.980469 483.304688 449.003906 480.386719 C 448.550781 479.039063 448.355469 477.617188 448.355469 476.199219 L 448.355469 435.554688 C 447.382813 435.554688 446.402344 435.582031 445.429688 435.582031 C 444.480469 435.585938 443.515625 435.671875 442.585938 435.429688 C 441.101563 435.042969 439.675781 433.796875 439.046875 432.410156 C 438.710938 431.675781 438.566406 430.871094 438.566406 430.070313 C 438.566406 428.140625 439.429688 426.382813 441.058594 425.332031 C 441.859375 424.8125 442.664063 424.632813 443.617188 424.597656 C 445.191406 424.542969 446.808594 424.570313 448.386719 424.570313 "/>
<path style=" stroke:none;fill-rule:nonzero;fill:rgb(50.19989%,50.19989%,51.399231%);fill-opacity:1;" d="M 396.289063 449.605469 C 396.289063 449.605469 397.832031 433.902344 411.648438 433.902344 C 426.390625 433.902344 426.164063 449.605469 426.164063 449.605469 Z M 437.378906 451.332031 C 435.839844 437.480469 430.261719 423.117188 410.410156 423.117188 C 394 423.117188 381.917969 443.398438 385.886719 464.492188 C 387.804688 474.683594 392.335938 484.519531 403.964844 488.621094 C 405.875 489.292969 408.316406 489.480469 410.332031 489.683594 C 416.441406 490.296875 423.109375 488.292969 427.90625 484.480469 C 431.542969 481.589844 436.871094 474.570313 435.007813 469.402344 C 434.246094 467.285156 432.730469 466.226563 430.394531 466.015625 C 427.726563 465.773438 426.074219 468.664063 425.441406 469.9375 C 423.910156 473.03125 422.742188 478.929688 411.648438 478.929688 C 404.949219 478.929688 401.167969 474.570313 398.753906 470.664063 C 397.160156 468.085938 396.441406 463.203125 396.265625 460.171875 L 420.304688 460.171875 C 422.988281 460.171875 425.667969 460.15625 428.351563 460.167969 C 429.246094 460.171875 430.152344 460.15625 431.046875 460.210938 C 431.9375 460.257813 432.867188 460.265625 433.730469 460.019531 C 434.8125 459.710938 435.984375 458.804688 436.582031 457.855469 C 437.957031 455.667969 437.65625 453.820313 437.378906 451.332031 "/>
<path style=" stroke:none;fill-rule:nonzero;fill:rgb(92.498779%,10.998535%,13.699341%);fill-opacity:1;" d="M 33.675781 286.175781 L 10.804688 286.265625 L 10.847656 305.117188 L 0.0429688 305.207031 L 0 325.730469 L 10.894531 325.730469 C 10.894531 325.730469 10.847656 353.53125 10.894531 354.84375 C 10.941406 356.15625 11.257813 364.382813 19.933594 372.472656 C 29.96875 382.371094 41.949219 382.191406 41.949219 382.191406 L 59.128906 382.148438 L 59.128906 362.617188 L 44.933594 362.617188 C 35.351563 362.617188 33.675781 351.046875 33.675781 351.046875 L 33.722656 325.820313 C 33.722656 325.820313 40.910156 325.777344 49.226563 325.730469 C 57.546875 325.6875 59.128906 316.554688 59.128906 316.554688 L 59.128906 305.160156 L 33.675781 305.207031 "/>
<path style=" stroke:none;fill-rule:nonzero;fill:rgb(92.498779%,10.998535%,13.699341%);fill-opacity:1;" d="M 94.367188 305.207031 C 90.839844 305.207031 84.535156 305.410156 75.582031 312.9375 C 66.632813 320.464844 65.09375 331.109375 65.140625 333.710938 C 65.183594 336.308594 65.164063 382.191406 65.164063 382.191406 L 87.359375 382.214844 C 87.359375 382.214844 87.382813 343.382813 87.382813 336.894531 C 87.382813 330.410156 97.148438 325.777344 99.8125 325.777344 C 102.480469 325.777344 112.855469 325.796875 112.855469 325.796875 L 112.742188 305.207031 "/>
<path style=" stroke:none;fill-rule:nonzero;fill:rgb(92.498779%,10.998535%,13.699341%);fill-opacity:1;" d="M 188.214844 305.207031 L 164.953125 305.273438 C 164.953125 305.273438 165.023438 348.0625 165.023438 351.859375 C 165.023438 355.65625 161.429688 363.25 152.679688 363.25 C 143.933594 363.25 141.085938 353.824219 141.085938 351.789063 C 141.085938 349.757813 141.152344 322.769531 141.152344 315.039063 C 141.152344 307.308594 133.492188 305.140625 131.660156 305.140625 C 129.828125 305.140625 118.371094 305.273438 118.371094 305.273438 C 118.371094 305.273438 118.300781 348.941406 118.300781 352.875 C 118.300781 356.808594 118.84375 364.402344 126.234375 372.742188 C 133.628906 381.085938 142.578125 383.324219 153.222656 383.1875 C 163.871094 383.050781 170.3125 381.21875 178.921875 374.371094 C 187.535156 367.523438 188.347656 354.027344 188.28125 350.027344 C 188.214844 346.027344 188.214844 305.207031 188.214844 305.207031 "/>
<path style=" stroke:none;fill-rule:nonzero;fill:rgb(92.498779%,10.998535%,13.699341%);fill-opacity:1;" d="M 214.226563 335.660156 C 215.4375 331.03125 219.765625 321.824219 230.730469 322.566406 C 243.746094 323.445313 245.105469 335.722656 245.105469 335.722656 Z M 265.515625 330.703125 C 262.734375 321.820313 259.8125 317.761719 254.9375 312.800781 C 247.140625 304.867188 235.476563 303.035156 229.984375 303.035156 C 224.492188 303.035156 215.066406 304.394531 205.367188 312.394531 C 195.671875 320.394531 192.28125 333.957031 192.011719 344.671875 C 191.738281 355.386719 197.367188 367.386719 204.960938 374.4375 C 212.558594 381.492188 222.050781 383.320313 230.59375 383.253906 C 239.136719 383.1875 244.222656 381.425781 251.480469 377.085938 C 258.734375 372.742188 263.820313 363.320313 263.820313 363.320313 C 263.820313 363.320313 246.324219 358.910156 242.664063 357.894531 C 240.96875 360.402344 236.222656 364.472656 229.035156 364.269531 C 221.847656 364.066406 217.640625 358.707031 215.8125 355.996094 C 215.257813 355.175781 214.839844 353.425781 214.53125 351.3125 C 224.632813 351.300781 263.628906 351.25 266.871094 351.25 C 266.972656 341.585938 267.210938 337.414063 265.515625 330.703125 "/>
<path style=" stroke:none;fill-rule:nonzero;fill:rgb(100%,47.799683%,0%);fill-opacity:1;" d="M 503.960938 22.234375 L 405.214844 22.234375 C 398.769531 22.234375 393.027344 26.3125 390.90625 32.402344 C 386.199219 45.90625 380.898438 61.128906 375.429688 76.828125 C 375.429688 76.828125 375.429688 76.828125 375.429688 76.832031 C 375.261719 77.316406 375.089844 77.804688 374.921875 78.289063 C 374.804688 78.625 374.6875 78.960938 374.570313 79.296875 C 357.5 128.289063 339.011719 181.335938 331.984375 201.425781 C 331.167969 203.929688 330.234375 206.78125 329.101563 209.714844 C 328.902344 210.234375 327.929688 212.714844 326.140625 215.15625 C 325.835938 215.578125 325.53125 215.957031 325.230469 216.308594 C 324.710938 216.925781 324.054688 217.65625 323.089844 218.40625 C 323.035156 218.449219 322.980469 218.484375 322.925781 218.527344 C 322.59375 218.785156 322.222656 219.050781 321.792969 219.3125 C 320.738281 219.957031 319.847656 220.289063 319.5 220.410156 C 319.449219 220.425781 319.402344 220.441406 319.351563 220.460938 C 319.347656 220.460938 319.335938 220.464844 319.328125 220.46875 C 319.296875 220.476563 319.265625 220.488281 319.234375 220.496094 C 319.214844 220.503906 319.191406 220.511719 319.167969 220.519531 C 317.902344 220.941406 316.738281 221.117188 315.789063 221.171875 L 434.480469 221.171875 C 435.246094 221.171875 436.011719 221.085938 436.753906 220.894531 C 439.640625 220.152344 445.8125 217.476563 448.410156 207.945313 L 510.066406 30.828125 C 511.527344 26.625 508.40625 22.234375 503.960938 22.234375 "/>
<path style=" stroke:none;fill-rule:nonzero;fill:rgb(100%,0%,5.899048%);fill-opacity:1;" d="M 211.738281 187.550781 C 211.765625 187.476563 211.789063 187.40625 211.816406 187.332031 L 212.042969 186.6875 C 212.164063 186.339844 212.285156 185.992188 212.410156 185.644531 C 212.574219 185.167969 212.742188 184.691406 212.910156 184.21875 C 213.117188 183.621094 213.328125 183.027344 213.535156 182.429688 C 213.785156 181.722656 214.03125 181.015625 214.28125 180.304688 C 214.566406 179.492188 214.851563 178.679688 215.136719 177.863281 C 215.460938 176.953125 215.777344 176.039063 216.097656 175.128906 L 217.15625 172.117188 C 217.535156 171.03125 217.917969 169.941406 218.300781 168.855469 C 218.710938 167.691406 219.117188 166.523438 219.527344 165.359375 C 219.960938 164.125 220.394531 162.890625 220.828125 161.65625 C 221.28125 160.359375 221.738281 159.0625 222.191406 157.761719 C 222.667969 156.410156 223.144531 155.058594 223.617188 153.703125 C 224.109375 152.300781 224.601563 150.902344 225.09375 149.5 C 225.601563 148.054688 226.105469 146.613281 226.613281 145.171875 C 227.132813 143.691406 227.648438 142.214844 228.167969 140.738281 C 228.695313 139.234375 229.222656 137.730469 229.753906 136.222656 C 230.289063 134.699219 230.820313 133.175781 231.359375 131.652344 C 231.898438 130.113281 232.4375 128.574219 232.976563 127.039063 C 233.519531 125.496094 234.058594 123.953125 234.601563 122.410156 L 236.222656 117.785156 L 237.839844 113.183594 C 238.371094 111.667969 238.902344 110.152344 239.4375 108.632813 C 239.960938 107.136719 240.484375 105.644531 241.011719 104.148438 C 241.523438 102.683594 242.035156 101.21875 242.550781 99.753906 C 243.050781 98.328125 243.554688 96.898438 244.054688 95.472656 C 244.539063 94.089844 245.027344 92.707031 245.511719 91.320313 C 245.976563 89.988281 246.445313 88.65625 246.914063 87.324219 C 247.359375 86.050781 247.808594 84.777344 248.253906 83.507813 C 248.679688 82.296875 249.101563 81.089844 249.527344 79.882813 L 250.722656 76.476563 C 251.09375 75.421875 251.460938 74.363281 251.832031 73.308594 L 252.851563 70.40625 C 253.15625 69.53125 253.464844 68.65625 253.773438 67.78125 C 254.042969 67.011719 254.316406 66.238281 254.585938 65.464844 C 254.820313 64.800781 255.050781 64.136719 255.285156 63.472656 C 255.476563 62.921875 255.671875 62.375 255.863281 61.824219 C 256.175781 60.929688 256.457031 60.015625 256.875 59.160156 L 256.910156 59.117188 L 256.929688 59.105469 L 256.941406 59.085938 L 256.960938 59.066406 C 257.042969 58.90625 257.074219 58.765625 257.167969 58.609375 C 257.984375 56.808594 260.140625 54.867188 261.019531 54.59375 L 247.652344 9.65625 C 245.980469 3.9375 240.492188 0.00390625 234.777344 0.00390625 L 140.460938 0.00390625 C 136.019531 0.00390625 132.835938 4.277344 134.097656 8.53125 L 187.195313 186.980469 C 189.390625 193.3125 194.148438 196.601563 199.015625 196.84375 C 199.019531 196.84375 199.019531 196.84375 199.023438 196.84375 C 204.085938 197.0625 209.246094 193.976563 211.738281 187.550781 "/>
<path style=" stroke:none;fill-rule:nonzero;fill:rgb(66.699219%,0%,8.599854%);fill-opacity:1;" d="M 261.007813 54.601563 C 261.011719 54.601563 261.015625 54.59375 261.019531 54.589844 L 260.976563 54.617188 C 260.984375 54.613281 260.996094 54.609375 261.007813 54.601563 "/>
<path style=" stroke:none;fill-rule:nonzero;fill:rgb(66.699219%,0%,8.599854%);fill-opacity:1;" d="M 297.851563 196.09375 C 297.632813 195.351563 297.410156 194.613281 297.191406 193.871094 C 297.078125 193.492188 296.96875 193.113281 296.851563 192.730469 L 274.097656 116.285156 L 258.183594 62.820313 C 257.589844 60.824219 257.789063 58.832031 258.632813 57.195313 C 258.832031 56.804688 259.074219 56.433594 259.351563 56.089844 C 259.382813 56.046875 259.410156 56 259.445313 55.960938 C 259.832031 55.496094 260.285156 55.082031 260.800781 54.730469 C 260.855469 54.691406 260.917969 54.65625 260.976563 54.617188 L 261.019531 54.59375 C 260.140625 54.867188 257.984375 56.808594 257.167969 58.609375 C 257.078125 58.765625 256.992188 58.925781 256.910156 59.085938 C 256.898438 59.109375 256.886719 59.136719 256.875 59.160156 C 256.457031 60.015625 256.175781 60.929688 255.863281 61.824219 C 255.671875 62.375 255.476563 62.921875 255.285156 63.472656 C 255.050781 64.136719 254.820313 64.800781 254.585938 65.464844 C 254.316406 66.238281 254.042969 67.011719 253.773438 67.78125 C 253.464844 68.65625 253.160156 69.53125 252.851563 70.40625 L 251.832031 73.308594 C 251.460938 74.363281 251.09375 75.421875 250.722656 76.476563 L 249.527344 79.882813 C 249.101563 81.089844 248.679688 82.296875 248.253906 83.507813 C 247.808594 84.777344 247.359375 86.050781 246.914063 87.324219 C 246.445313 88.65625 245.976563 89.988281 245.511719 91.320313 C 245.027344 92.707031 244.539063 94.089844 244.054688 95.472656 C 243.554688 96.898438 243.054688 98.328125 242.550781 99.753906 C 242.039063 101.21875 241.523438 102.683594 241.011719 104.148438 C 240.484375 105.644531 239.960938 107.136719 239.4375 108.632813 C 238.902344 110.152344 238.371094 111.667969 237.839844 113.183594 L 236.222656 117.785156 L 234.601563 122.410156 C 234.058594 123.953125 233.519531 125.496094 232.976563 127.039063 C 232.4375 128.574219 231.898438 130.113281 231.359375 131.652344 C 230.824219 133.175781 230.289063 134.699219 229.753906 136.222656 C 229.226563 137.730469 228.695313 139.234375 228.167969 140.738281 C 227.648438 142.214844 227.132813 143.691406 226.613281 145.171875 C 226.105469 146.613281 225.601563 148.054688 225.09375 149.5 C 224.601563 150.902344 224.109375 152.300781 223.617188 153.703125 C 223.144531 155.058594 222.667969 156.410156 222.191406 157.761719 C 221.738281 159.0625 221.28125 160.359375 220.828125 161.65625 C 220.394531 162.890625 219.960938 164.125 219.527344 165.359375 C 219.117188 166.523438 218.710938 167.691406 218.300781 168.855469 C 217.917969 169.941406 217.539063 171.03125 217.15625 172.117188 L 216.101563 175.128906 C 215.777344 176.039063 215.460938 176.953125 215.140625 177.863281 C 214.851563 178.679688 214.566406 179.492188 214.28125 180.304688 C 214.035156 181.015625 213.785156 181.722656 213.535156 182.429688 C 213.328125 183.027344 213.117188 183.621094 212.910156 184.21875 C 212.742188 184.691406 212.574219 185.167969 212.410156 185.644531 C 212.285156 185.992188 212.164063 186.339844 212.042969 186.6875 L 211.816406 187.332031 C 211.789063 187.40625 211.765625 187.476563 211.738281 187.550781 C 209.246094 193.976563 204.085938 197.0625 199.023438 196.84375 C 199.019531 196.84375 199.019531 196.84375 199.015625 196.84375 C 198.921875 196.855469 198.828125 196.859375 198.738281 196.863281 L 298.078125 196.863281 C 298.003906 196.605469 297.929688 196.347656 297.851563 196.09375 "/>
<path style=" stroke:none;fill-rule:nonzero;fill:rgb(100%,80.39856%,0%);fill-opacity:1;" d="M 375.429688 76.828125 C 374.578125 73.761719 373.738281 70.691406 372.925781 67.613281 C 372.253906 65.082031 371.46875 62.636719 370.101563 60.382813 C 368.765625 58.175781 366.949219 56.265625 364.683594 55.003906 C 364.050781 54.652344 363.390625 54.351563 362.710938 54.109375 C 361.636719 53.730469 359.816406 53.457031 358.679688 53.457031 L 265.167969 53.457031 C 263.535156 53.457031 262.136719 53.886719 261.007813 54.601563 C 260.996094 54.609375 260.984375 54.613281 260.976563 54.621094 C 260.917969 54.65625 260.855469 54.691406 260.800781 54.730469 C 260.285156 55.082031 259.835938 55.496094 259.445313 55.960938 C 259.410156 56 259.386719 56.046875 259.351563 56.089844 C 259.074219 56.433594 258.832031 56.804688 258.632813 57.195313 C 257.789063 58.832031 257.589844 60.828125 258.183594 62.820313 L 274.097656 116.285156 L 296.855469 192.730469 L 297.992188 196.554688 L 302.316406 211.617188 C 302.597656 212.417969 304.886719 218.636719 311.191406 220.601563 C 314.289063 221.566406 317.011719 221.089844 318.402344 220.734375 C 318.609375 220.683594 318.871094 220.613281 319.167969 220.519531 C 319.191406 220.511719 319.214844 220.503906 319.234375 220.496094 C 319.273438 220.484375 319.3125 220.472656 319.351563 220.460938 C 319.402344 220.441406 319.449219 220.425781 319.5 220.410156 C 319.847656 220.289063 320.742188 219.957031 321.792969 219.3125 C 322.222656 219.054688 322.59375 218.785156 322.929688 218.527344 C 323.609375 217.996094 324.113281 217.496094 324.488281 217.113281 C 324.738281 216.859375 324.984375 216.59375 325.230469 216.308594 C 325.53125 215.957031 325.835938 215.578125 326.140625 215.160156 C 327.929688 212.714844 328.902344 210.234375 329.101563 209.714844 C 330.234375 206.78125 331.167969 203.929688 331.984375 201.425781 C 332.433594 200.054688 332.84375 198.785156 333.234375 197.671875 L 336.175781 189.246094 C 337.40625 185.71875 338.640625 182.1875 339.871094 178.65625 C 341.292969 174.589844 342.714844 170.523438 344.132813 166.457031 C 345.675781 162.042969 347.214844 157.628906 348.757813 153.210938 C 350.355469 148.636719 351.953125 144.058594 353.554688 139.480469 L 358.324219 125.824219 L 362.867188 112.804688 C 364.246094 108.859375 365.621094 104.917969 366.996094 100.976563 C 368.171875 97.621094 369.34375 94.265625 370.515625 90.910156 C 371.414063 88.328125 372.316406 85.746094 373.21875 83.160156 C 373.671875 81.871094 374.117188 80.585938 374.570313 79.296875 C 374.6875 78.960938 374.804688 78.625 374.921875 78.289063 C 375.089844 77.804688 375.261719 77.316406 375.429688 76.832031 C 375.429688 76.828125 375.429688 76.828125 375.429688 76.828125 "/>
<path style=" stroke:none;fill-rule:nonzero;fill:rgb(100%,47.799683%,0%);fill-opacity:1;" d="M 512.792969 660.730469 C 512.792969 660.730469 513.816406 653.292969 520.398438 653.292969 C 526.808594 653.292969 527.90625 660.730469 527.90625 660.730469 Z M 535.34375 661.722656 C 534.449219 653.847656 529.785156 645.679688 519.679688 645.679688 C 519.679688 645.679688 506.070313 645.675781 504.984375 664.125 C 504.960938 664.488281 504.984375 664.859375 504.996094 665.226563 C 505.039063 666.179688 505.136719 667.132813 505.277344 668.082031 C 505.480469 669.398438 505.773438 670.703125 506.179688 671.976563 C 506.648438 673.445313 507.265625 674.871094 508.058594 676.195313 C 508.921875 677.632813 509.992188 678.941406 511.269531 680.03125 C 512.703125 681.253906 514.378906 682.167969 516.167969 682.761719 C 517.28125 683.132813 518.460938 683.414063 519.632813 683.527344 C 521.238281 683.6875 522.859375 683.464844 524.417969 683.078125 C 526.925781 682.460938 529.253906 681.25 531.191406 679.535156 C 531.996094 678.824219 532.785156 678.023438 533.378906 677.125 C 533.378906 677.125 534.640625 675.21875 533.9375 673.316406 C 533.496094 672.113281 532.59375 671.011719 531.234375 670.890625 C 529.6875 670.753906 528.804688 671.945313 527.839844 672.9375 C 527.839844 672.9375 525.453125 675.917969 520.773438 675.917969 C 517.859375 675.917969 515.6875 674.5625 514.285156 672.339844 C 513.359375 670.875 512.800781 668.960938 512.699219 667.238281 L 525.410156 667.238281 C 526.96875 667.238281 528.523438 667.230469 530.082031 667.234375 C 530.605469 667.238281 531.128906 667.230469 531.648438 667.257813 C 532.167969 667.289063 532.703125 667.292969 533.207031 667.148438 C 533.835938 666.972656 534.515625 666.460938 534.863281 665.921875 C 535.660156 664.675781 535.503906 663.136719 535.34375 661.722656 "/>
<path style=" stroke:none;fill-rule:nonzero;fill:rgb(100%,47.799683%,0%);fill-opacity:1;" d="M 535.269531 653.246094 C 535.382813 653.585938 535.507813 653.921875 535.628906 654.257813 C 535.628906 654.667969 536.003906 655.28125 536.144531 655.667969 C 536.328125 656.164063 536.507813 656.660156 536.6875 657.152344 C 537.050781 658.144531 537.414063 659.136719 537.773438 660.125 C 538.480469 662.058594 539.195313 663.984375 539.914063 665.910156 C 540.730469 668.078125 541.554688 670.242188 542.390625 672.40625 C 542.8125 673.503906 543.242188 674.605469 543.671875 675.703125 C 543.882813 676.242188 544.09375 676.78125 544.304688 677.320313 C 544.414063 677.589844 544.519531 677.859375 544.625 678.132813 C 544.675781 678.265625 544.996094 678.820313 544.945313 678.941406 C 544.3125 680.535156 543.632813 682.117188 542.738281 683.582031 C 541.628906 685.410156 540.089844 687.015625 538.445313 688.367188 C 538.089844 688.660156 536.886719 689.589844 536.496094 689.832031 C 535.660156 690.351563 534.789063 690.707031 534.128906 691.464844 C 533.476563 692.210938 533.117188 693.144531 533.117188 694.140625 C 533.117188 694.953125 533.304688 695.769531 533.75 696.457031 C 534.117188 697.023438 534.613281 697.5 535.210938 697.824219 C 535.828125 698.15625 536.628906 698.054688 537.277344 697.847656 C 537.898438 697.644531 538.46875 697.316406 539.023438 696.976563 C 541.453125 695.472656 543.714844 693.65625 545.628906 691.527344 C 545.816406 691.316406 545.996094 691.101563 546.171875 690.878906 C 546.378906 690.625 546.585938 690.367188 546.769531 690.101563 C 546.769531 690.101563 549.839844 686.101563 551.660156 681.414063 C 553.476563 676.726563 555.699219 670.628906 555.699219 670.628906 C 557.242188 666.527344 558.769531 662.425781 560.335938 658.332031 C 560.890625 656.875 561.449219 655.417969 562.003906 653.957031 C 562.59375 652.417969 563.191406 650.734375 562.714844 649.15625 C 562.066406 647.023438 559.128906 645.570313 557.402344 647.410156 C 556.757813 648.097656 556.410156 649.007813 556.078125 649.890625 C 554.574219 653.890625 553.074219 657.890625 551.578125 661.894531 C 550.9375 663.609375 550.300781 665.324219 549.660156 667.042969 C 549.53125 667.390625 548.703125 668.875 548.839844 669.242188 C 548.058594 667.179688 547.273438 665.117188 546.488281 663.058594 C 545.039063 659.25 543.585938 655.449219 542.15625 651.632813 C 541.808594 650.707031 541.460938 649.78125 541.089844 648.863281 C 540.761719 648.054688 540.179688 647.332031 539.410156 646.90625 C 538.265625 646.269531 536.714844 646.566406 535.796875 647.476563 C 534.949219 648.320313 534.644531 649.597656 534.726563 650.792969 C 534.78125 651.632813 535 652.445313 535.269531 653.246094 "/>
<path style=" stroke:none;fill-rule:nonzero;fill:rgb(100%,47.799683%,0%);fill-opacity:1;" d="M 391.984375 649.910156 C 391.933594 650.386719 391.9375 650.871094 391.941406 651.351563 C 391.957031 652.734375 391.957031 654.113281 391.957031 655.496094 L 391.957031 673.570313 C 391.957031 674.574219 391.957031 675.578125 391.960938 676.582031 C 391.960938 677.507813 391.902344 678.449219 392.011719 679.371094 C 392.132813 680.359375 392.46875 681.335938 393.140625 682.089844 C 393.714844 682.738281 394.503906 683.117188 395.363281 683.191406 C 395.484375 683.203125 395.605469 683.207031 395.726563 683.207031 C 396.855469 683.207031 397.835938 682.664063 398.480469 681.746094 C 399.023438 680.96875 399.308594 680.054688 399.433594 679.117188 C 399.566406 678.132813 399.527344 677.140625 399.519531 676.148438 C 399.511719 675.324219 399.511719 674.5 399.515625 673.675781 C 399.515625 672.863281 399.515625 672.050781 399.515625 671.238281 L 399.515625 661.503906 C 399.515625 660.503906 399.488281 659.523438 399.714844 658.539063 C 400.011719 657.234375 400.605469 655.910156 401.617188 655.003906 C 402.554688 654.15625 403.777344 653.753906 405.027344 653.699219 C 405.132813 653.695313 405.242188 653.691406 405.351563 653.691406 C 406.605469 653.691406 407.84375 654.054688 408.800781 654.886719 C 409.632813 655.613281 410.164063 656.601563 410.523438 657.628906 C 411.035156 659.082031 411.03125 660.648438 411.027344 662.167969 C 411.027344 665.195313 411.023438 668.222656 411.023438 671.25 L 411.023438 679.105469 C 411.023438 679.105469 411.351563 683.207031 414.738281 683.207031 C 418.125 683.207031 418.421875 679.433594 418.421875 679.433594 L 418.421875 661.324219 C 418.421875 661.324219 418.503906 653.683594 424.804688 653.683594 C 430.648438 653.667969 430.125 661.160156 430.125 661.160156 L 430.125 679.53125 C 430.125 679.53125 430.605469 683.207031 433.828125 683.207031 C 437.050781 683.207031 437.5 679.601563 437.5 679.601563 L 437.5 659.488281 C 437.5 659.488281 437.078125 645.683594 426.511719 645.683594 C 418.832031 645.683594 416.214844 651.820313 416.140625 651.804688 C 416.117188 651.800781 416.082031 651.703125 416.070313 651.683594 C 416.011719 651.570313 415.953125 651.460938 415.890625 651.351563 C 415.800781 651.183594 415.703125 651.015625 415.601563 650.851563 C 415.472656 650.636719 415.335938 650.429688 415.191406 650.222656 C 415.023438 649.980469 414.84375 649.742188 414.660156 649.511719 C 414.449219 649.253906 414.230469 649 413.996094 648.761719 C 413.746094 648.496094 413.480469 648.242188 413.203125 648.007813 C 412.902344 647.75 412.59375 647.511719 412.265625 647.292969 C 411.921875 647.058594 411.5625 646.847656 411.1875 646.664063 C 410.074219 646.109375 408.84375 645.789063 407.601563 645.71875 C 407.28125 645.699219 406.957031 645.679688 406.636719 645.683594 C 405.847656 645.6875 405.078125 645.839844 404.339844 646.125 C 403.910156 646.289063 403.5 646.496094 403.105469 646.730469 C 402.71875 646.960938 402.347656 647.222656 401.996094 647.503906 C 401.589844 647.835938 401.203125 648.195313 400.84375 648.578125 C 400.425781 649.027344 400.035156 649.503906 399.675781 650.003906 C 399.628906 650.066406 399.582031 650.132813 399.539063 650.199219 C 399.539063 650.199219 399.097656 645.945313 395.808594 645.945313 C 394.480469 645.945313 393.390625 646.675781 392.722656 647.796875 C 392.476563 648.207031 392.261719 648.671875 392.132813 649.132813 C 392.0625 649.386719 392.015625 649.648438 391.984375 649.910156 "/>
<path style=" stroke:none;fill-rule:nonzero;fill:rgb(100%,47.799683%,0%);fill-opacity:1;" d="M 455.617188 675.609375 C 451.007813 675.609375 447.269531 670.679688 447.269531 664.597656 C 447.269531 658.515625 451.007813 653.589844 455.617188 653.589844 C 460.230469 653.589844 463.96875 658.515625 463.96875 664.597656 C 463.96875 670.679688 460.230469 675.609375 455.617188 675.609375 M 455.617188 645.628906 C 446.980469 645.628906 439.980469 654.109375 439.980469 664.570313 C 439.980469 675.035156 446.980469 683.515625 455.617188 683.515625 C 464.253906 683.515625 471.253906 675.035156 471.253906 664.570313 C 471.253906 654.109375 464.253906 645.628906 455.617188 645.628906 "/>
<path style=" stroke:none;fill-rule:nonzero;fill:rgb(100%,47.799683%,0%);fill-opacity:1;" d="M 481.128906 650.285156 C 481.128906 649.515625 480.945313 648.753906 480.570313 648.082031 C 480.027344 647.117188 479.019531 646.007813 477.230469 646.007813 C 476.144531 646.007813 475.214844 646.566406 474.597656 647.445313 C 474.347656 647.800781 474.148438 648.1875 473.988281 648.59375 C 473.757813 649.1875 473.671875 649.761719 473.675781 650.402344 L 473.675781 650.472656 C 473.675781 651.863281 473.679688 653.257813 473.679688 654.648438 L 473.679688 677.8125 C 473.679688 678.621094 473.605469 679.417969 473.832031 680.210938 C 474.3125 681.890625 475.6875 683.226563 477.492188 683.226563 C 480.664063 683.226563 481.0625 679.675781 481.0625 679.675781 L 481.0625 662.566406 C 481.0625 661.644531 481.183594 660.726563 481.429688 659.835938 C 482.089844 657.472656 483.703125 653.601563 488.285156 653.601563 C 489.792969 653.601563 491.253906 654.089844 492.371094 655.117188 C 493.300781 655.972656 493.941406 657.097656 494.371094 658.273438 C 495.191406 660.5 495.109375 662.828125 495.089844 665.15625 C 495.082031 665.847656 495.074219 666.535156 495.074219 667.222656 L 495.074219 676.847656 C 495.074219 678.027344 494.894531 679.238281 495.296875 680.378906 C 495.847656 681.949219 497.226563 683.226563 498.949219 683.226563 C 500.195313 683.226563 501.222656 682.5625 501.832031 681.496094 C 502.460938 680.386719 502.511719 679.246094 502.511719 677.996094 C 502.519531 675.421875 502.503906 672.847656 502.503906 670.269531 L 502.503906 662.921875 C 502.503906 660.054688 502.195313 657.253906 501.238281 654.523438 C 500.566406 652.605469 499.628906 650.75 498.289063 649.207031 C 496.816406 647.511719 494.867188 646.308594 492.652344 645.878906 C 491.953125 645.742188 491.234375 645.679688 490.519531 645.679688 C 484.699219 645.679688 481.730469 649.632813 481.242188 650.320313 C 481.21875 650.351563 481.128906 650.324219 481.128906 650.285156 "/>
<g clip-path="url(#clip2)" clip-rule="nonzero">
<path style=" stroke:none;fill-rule:nonzero;fill:rgb(50.19989%,50.59967%,51.799011%);fill-opacity:1;" d="M 417.949219 731.316406 C 417.902344 730.984375 417.9375 730.609375 417.9375 730.285156 L 417.9375 693.964844 C 417.9375 693.339844 418.199219 692.707031 418.636719 692.253906 C 419.082031 691.796875 419.699219 691.582031 420.332031 691.558594 C 420.375 691.558594 420.414063 691.554688 420.453125 691.554688 C 421.101563 691.554688 421.734375 691.757813 422.203125 692.21875 C 422.75 692.753906 423.019531 693.480469 423.015625 694.238281 C 423.015625 694.929688 423.015625 695.628906 423.015625 696.320313 L 423.015625 729.726563 C 423.015625 730.285156 423.078125 730.894531 422.949219 731.4375 C 422.660156 732.613281 421.679688 733.378906 420.476563 733.378906 C 419.339844 733.378906 418.308594 732.632813 417.992188 731.527344 C 417.972656 731.460938 417.960938 731.386719 417.949219 731.316406 "/>
</g>
<g clip-path="url(#clip3)" clip-rule="nonzero">
<path style=" stroke:none;fill-rule:nonzero;fill:rgb(50.19989%,50.59967%,51.799011%);fill-opacity:1;" d="M 429.058594 731.316406 C 429.011719 730.984375 429.046875 730.609375 429.046875 730.285156 L 429.046875 693.964844 C 429.046875 693.339844 429.308594 692.707031 429.746094 692.253906 C 430.191406 691.796875 430.808594 691.582031 431.441406 691.558594 C 431.484375 691.558594 431.523438 691.554688 431.5625 691.554688 C 432.210938 691.554688 432.84375 691.757813 433.3125 692.21875 C 433.859375 692.753906 434.128906 693.480469 434.125 694.238281 C 434.121094 694.929688 434.121094 695.628906 434.121094 696.320313 L 434.121094 729.726563 C 434.121094 730.285156 434.1875 730.894531 434.058594 731.4375 C 433.769531 732.613281 432.789063 733.378906 431.585938 733.378906 C 430.449219 733.378906 429.414063 732.632813 429.101563 731.527344 C 429.078125 731.460938 429.066406 731.386719 429.058594 731.316406 "/>
</g>
<g clip-path="url(#clip4)" clip-rule="nonzero">
<path style=" stroke:none;fill-rule:nonzero;fill:rgb(50.19989%,50.59967%,51.799011%);fill-opacity:1;" d="M 377.140625 724.464844 C 377.078125 724.210938 377.019531 723.960938 376.957031 723.707031 C 376.839844 723.207031 376.71875 722.703125 376.601563 722.199219 C 376.363281 721.191406 376.125 720.1875 375.890625 719.179688 C 375.359375 716.878906 374.808594 714.53125 374.269531 712.210938 C 373.730469 709.898438 373.257813 707.550781 372.628906 705.261719 C 372.589844 705.121094 372.550781 704.984375 372.507813 704.847656 C 372.332031 704.261719 372.089844 703.691406 371.617188 703.277344 C 370.925781 702.660156 369.777344 702.566406 368.859375 702.695313 C 368.195313 702.789063 367.515625 703.007813 367.054688 703.496094 C 366.578125 704 366.410156 704.714844 366.257813 705.394531 C 364.800781 711.988281 363.339844 718.582031 361.878906 725.175781 C 360.304688 718.855469 358.730469 712.53125 357.15625 706.210938 C 356.839844 704.933594 356.414063 703.511719 355.253906 702.898438 C 354.214844 702.339844 352.800781 702.777344 352.15625 703.738281 C 351.25 705.105469 351.675781 706.796875 352.09375 708.253906 C 354.222656 715.703125 356.351563 723.15625 358.484375 730.609375 C 358.722656 731.441406 358.996094 732.328125 359.675781 732.859375 C 360.234375 733.296875 360.972656 733.414063 361.679688 733.445313 C 362.519531 733.484375 363.4375 733.386719 364.054688 732.816406 C 364.609375 732.304688 364.800781 731.523438 364.96875 730.785156 L 369.261719 711.933594 C 369.273438 711.878906 369.347656 711.878906 369.363281 711.9375 C 370.769531 717.46875 372.058594 723.03125 373.371094 728.589844 C 373.554688 729.359375 373.734375 730.132813 373.914063 730.902344 C 374.058594 731.515625 374.214844 732.152344 374.628906 732.621094 C 375.183594 733.253906 376.085938 733.453125 376.921875 733.46875 C 377.585938 733.484375 378.277344 733.402344 378.847656 733.058594 C 379.726563 732.53125 380.15625 731.492188 380.386719 730.492188 C 381.0625 727.578125 381.945313 724.710938 382.757813 721.824219 C 384.039063 717.261719 385.496094 712.742188 386.671875 708.152344 C 386.78125 707.722656 386.890625 707.296875 386.992188 706.867188 C 387.105469 706.394531 387.210938 705.902344 387.238281 705.417969 C 387.269531 704.734375 387.140625 704.058594 386.621094 703.460938 C 386.136719 702.898438 385.398438 702.597656 384.65625 702.648438 C 382.628906 702.785156 382.164063 705.097656 381.8125 706.675781 C 380.421875 712.863281 378.84375 719.125 377.3125 725.1875 "/>
</g>
<g clip-path="url(#clip5)" clip-rule="nonzero">
<path style=" stroke:none;fill-rule:nonzero;fill:rgb(50.19989%,50.59967%,51.799011%);fill-opacity:1;" d="M 406.863281 723.027344 C 406.683594 724.421875 405.984375 725.695313 404.972656 726.65625 C 404.488281 727.113281 403.933594 727.5 403.332031 727.785156 C 401.570313 728.628906 399.390625 728.816406 397.496094 728.339844 C 395.6875 727.886719 394.765625 726.429688 394.839844 724.597656 C 394.902344 723.070313 395.691406 721.785156 396.972656 720.992188 C 398.175781 720.246094 399.5625 719.90625 400.941406 719.660156 C 402.738281 719.339844 404.613281 719.125 406.320313 718.449219 C 406.464844 718.390625 406.65625 718.3125 406.886719 718.199219 C 406.886719 719.035156 406.886719 719.867188 406.890625 720.699219 C 406.894531 721.472656 406.960938 722.261719 406.863281 723.027344 M 413.65625 728.683594 C 413.199219 728.480469 412.609375 728.542969 412.277344 728.164063 C 411.96875 727.820313 411.957031 727.234375 411.960938 726.769531 C 411.988281 722.339844 412.019531 717.90625 412.050781 713.472656 C 412.0625 711.769531 412.070313 710.046875 411.683594 708.390625 C 411.292969 706.730469 410.460938 705.117188 409.085938 704.113281 C 407.996094 703.320313 406.652344 702.964844 405.328125 702.722656 C 402.617188 702.230469 399.765625 702.175781 397.152344 703.054688 C 395.195313 703.71875 393.386719 704.953125 392.195313 706.65625 C 391.410156 707.777344 390.683594 709.375 390.835938 710.816406 C 390.894531 711.355469 391.074219 711.875 391.421875 712.335938 C 392.238281 713.425781 394.011719 713.761719 395.007813 712.835938 C 395.910156 712 395.910156 710.585938 396.507813 709.507813 C 397.335938 708.011719 399.191406 707.398438 400.902344 707.304688 C 402.589844 707.214844 404.386719 707.550781 405.640625 708.679688 C 406.898438 709.808594 407.390625 711.875 406.402344 713.242188 C 405.738281 714.15625 404.601563 714.589844 403.511719 714.875 C 401.285156 715.460938 398.96875 715.660156 396.742188 716.246094 C 394.515625 716.835938 392.300781 717.894531 390.96875 719.773438 C 389.691406 721.578125 389.394531 723.917969 389.617188 726.117188 C 389.785156 727.777344 390.25 729.457031 391.28125 730.765625 C 392.585938 732.421875 394.667969 733.316406 396.753906 733.589844 C 400.59375 734.089844 404.640625 732.570313 407.199219 729.664063 C 407.242188 730.84375 407.800781 731.992188 408.703125 732.753906 C 409.605469 733.511719 410.835938 733.851563 412.003906 733.691406 C 413.167969 733.53125 414.390625 732.851563 414.722656 731.722656 C 415.042969 730.636719 414.730469 729.167969 413.65625 728.683594 "/>
</g>
<g clip-path="url(#clip6)" clip-rule="nonzero">
<path style=" stroke:none;fill-rule:nonzero;fill:rgb(50.19989%,50.59967%,51.799011%);fill-opacity:1;" d="M 468.121094 703.0625 C 468.121094 702.882813 468.121094 702.703125 468.121094 702.523438 L 468.117188 701.179688 C 468.117188 700.605469 468.113281 700.027344 468.113281 699.453125 C 468.113281 698.886719 468.109375 698.320313 468.109375 697.753906 L 468.105469 696.5 C 468.105469 696.207031 468.113281 695.9375 468.203125 695.660156 C 468.265625 695.46875 468.347656 695.285156 468.449219 695.113281 C 468.730469 694.636719 469.175781 694.28125 469.703125 694.105469 C 470.019531 694.003906 470.355469 693.960938 470.6875 693.960938 C 471.308594 693.960938 471.921875 694.148438 472.367188 694.597656 C 473.117188 695.351563 473.15625 696.445313 473.132813 697.441406 C 473.117188 698.160156 473.128906 698.875 473.128906 699.59375 L 473.128906 703.078125 L 475.773438 703.078125 C 476.109375 703.078125 476.441406 703.050781 476.765625 703.171875 C 477.710938 703.535156 478.304688 704.375 478.367188 705.378906 C 478.371094 705.453125 478.375 705.523438 478.375 705.597656 C 478.375 706.476563 478.011719 707.292969 477.261719 707.777344 C 477.140625 707.855469 477.011719 707.917969 476.878906 707.976563 C 476.601563 708.105469 476.339844 708.128906 476.035156 708.128906 C 475.074219 708.128906 474.109375 708.128906 473.148438 708.128906 L 473.148438 726.289063 C 473.148438 726.289063 473.21875 728.4375 475.570313 728.4375 C 477.921875 728.4375 479.148438 728.273438 479.148438 730.851563 C 479.148438 731.570313 478.953125 732.222656 478.390625 732.703125 C 477.789063 733.214844 476.972656 733.398438 476.210938 733.378906 C 475.289063 733.355469 474.402344 733.414063 473.488281 733.261719 C 472.65625 733.125 471.859375 732.808594 471.128906 732.398438 C 469.886719 731.699219 468.871094 730.625 468.410156 729.253906 C 468.199219 728.625 468.105469 727.957031 468.105469 727.289063 L 468.105469 708.21875 C 467.648438 708.21875 467.191406 708.230469 466.734375 708.230469 C 466.289063 708.230469 465.835938 708.273438 465.398438 708.160156 C 464.703125 707.976563 464.035156 707.390625 463.738281 706.742188 C 463.582031 706.394531 463.511719 706.019531 463.511719 705.640625 C 463.511719 704.738281 463.917969 703.914063 464.683594 703.417969 C 465.058594 703.175781 465.4375 703.089844 465.882813 703.074219 C 466.621094 703.046875 467.382813 703.0625 468.121094 703.0625 "/>
</g>
<g clip-path="url(#clip7)" clip-rule="nonzero">
<path style=" stroke:none;fill-rule:nonzero;fill:rgb(50.19989%,50.59967%,51.799011%);fill-opacity:1;" d="M 443.675781 714.808594 C 443.675781 714.808594 444.398438 707.441406 450.882813 707.441406 C 457.800781 707.441406 457.695313 714.808594 457.695313 714.808594 Z M 462.957031 715.621094 C 462.234375 709.121094 459.617188 702.378906 450.300781 702.378906 C 442.601563 702.378906 436.929688 711.898438 438.792969 721.796875 C 439.691406 726.578125 441.820313 731.191406 447.277344 733.117188 C 448.175781 733.433594 449.320313 733.523438 450.265625 733.617188 C 453.132813 733.90625 456.261719 732.964844 458.511719 731.175781 C 460.21875 729.820313 462.71875 726.527344 461.84375 724.101563 C 461.488281 723.105469 460.777344 722.609375 459.679688 722.511719 C 458.425781 722.398438 457.652344 723.753906 457.355469 724.351563 C 456.636719 725.804688 456.089844 728.574219 450.882813 728.574219 C 447.738281 728.574219 445.964844 726.527344 444.828125 724.691406 C 444.082031 723.484375 443.746094 721.191406 443.664063 719.769531 L 454.945313 719.769531 C 456.203125 719.769531 457.460938 719.761719 458.71875 719.765625 C 459.140625 719.769531 459.566406 719.761719 459.984375 719.785156 C 460.402344 719.808594 460.839844 719.8125 461.246094 719.695313 C 461.75 719.550781 462.300781 719.128906 462.582031 718.679688 C 463.226563 717.65625 463.085938 716.789063 462.957031 715.621094 "/>
</g>
<path style=" stroke:none;fill-rule:nonzero;fill:rgb(100%,0%,2.398682%);fill-opacity:1;" d="M 273.761719 637.753906 L 262.96875 637.796875 L 262.988281 646.691406 L 257.890625 646.734375 L 257.871094 656.417969 L 263.011719 656.417969 C 263.011719 656.417969 262.988281 669.535156 263.011719 670.152344 C 263.03125 670.773438 263.179688 674.65625 267.277344 678.472656 C 272.011719 683.144531 277.664063 683.058594 277.664063 683.058594 L 285.769531 683.035156 L 285.769531 673.824219 L 279.070313 673.824219 C 274.550781 673.824219 273.761719 668.363281 273.761719 668.363281 L 273.78125 656.460938 C 273.78125 656.460938 277.171875 656.441406 281.097656 656.417969 C 285.023438 656.398438 285.769531 652.089844 285.769531 652.089844 L 285.769531 646.714844 L 273.761719 646.734375 "/>
<path style=" stroke:none;fill-rule:nonzero;fill:rgb(100%,0%,2.398682%);fill-opacity:1;" d="M 302.394531 646.734375 C 300.730469 646.734375 297.753906 646.832031 293.53125 650.382813 C 289.308594 653.933594 288.582031 658.957031 288.605469 660.183594 C 288.625 661.410156 288.617188 683.058594 288.617188 683.058594 L 299.089844 683.070313 C 299.089844 683.070313 299.097656 664.75 299.097656 661.6875 C 299.097656 658.625 303.707031 656.441406 304.964844 656.441406 C 306.222656 656.441406 311.117188 656.449219 311.117188 656.449219 L 311.0625 646.734375 "/>
<path style=" stroke:none;fill-rule:nonzero;fill:rgb(100%,0%,2.398682%);fill-opacity:1;" d="M 346.671875 646.734375 L 335.699219 646.765625 C 335.699219 646.765625 335.730469 666.957031 335.730469 668.746094 C 335.730469 670.539063 334.035156 674.121094 329.90625 674.121094 C 325.78125 674.121094 324.4375 669.675781 324.4375 668.714844 C 324.4375 667.753906 324.46875 655.019531 324.46875 651.375 C 324.46875 647.726563 320.855469 646.703125 319.992188 646.703125 C 319.128906 646.703125 313.71875 646.765625 313.71875 646.765625 C 313.71875 646.765625 313.6875 667.371094 313.6875 669.226563 C 313.6875 671.082031 313.945313 674.667969 317.429688 678.601563 C 320.917969 682.535156 325.140625 683.589844 330.164063 683.527344 C 335.1875 683.464844 338.226563 682.597656 342.289063 679.367188 C 346.351563 676.136719 346.738281 669.769531 346.703125 667.882813 C 346.671875 665.996094 346.671875 646.734375 346.671875 646.734375 "/>
<path style=" stroke:none;fill-rule:nonzero;fill:rgb(100%,0%,2.398682%);fill-opacity:1;" d="M 358.945313 661.101563 C 359.519531 658.917969 361.558594 654.574219 366.730469 654.925781 C 372.875 655.339844 373.515625 661.132813 373.515625 661.132813 Z M 383.144531 658.765625 C 381.835938 654.574219 380.453125 652.660156 378.152344 650.316406 C 374.476563 646.574219 368.972656 645.710938 366.382813 645.710938 C 363.789063 645.710938 359.34375 646.351563 354.765625 650.125 C 350.191406 653.902344 348.59375 660.300781 348.464844 665.355469 C 348.339844 670.410156 350.992188 676.074219 354.574219 679.398438 C 358.15625 682.726563 362.636719 683.589844 366.667969 683.558594 C 370.699219 683.527344 373.097656 682.695313 376.523438 680.648438 C 379.945313 678.601563 382.34375 674.152344 382.34375 674.152344 C 382.34375 674.152344 374.089844 672.074219 372.363281 671.59375 C 371.5625 672.777344 369.324219 674.699219 365.933594 674.601563 C 362.542969 674.503906 360.558594 671.976563 359.695313 670.699219 C 359.433594 670.308594 359.234375 669.484375 359.089844 668.488281 C 363.855469 668.484375 382.253906 668.457031 383.785156 668.457031 C 383.832031 663.898438 383.945313 661.933594 383.144531 658.765625 "/>
<path style=" stroke:none;fill-rule:nonzero;fill:rgb(100%,47.799683%,0%);fill-opacity:1;" d="M 239.324219 647.242188 L 197.183594 647.242188 C 194.433594 647.242188 191.980469 648.984375 191.074219 651.582031 C 189.070313 657.347656 186.804688 663.839844 184.472656 670.539063 L 184.472656 670.542969 C 184.398438 670.75 184.328125 670.957031 184.253906 671.164063 C 184.203125 671.308594 184.15625 671.449219 184.105469 671.59375 C 176.820313 692.503906 168.929688 715.140625 165.929688 723.714844 C 165.582031 724.78125 165.183594 726 164.699219 727.25 C 164.617188 727.472656 164.199219 728.53125 163.4375 729.574219 C 163.308594 729.753906 163.179688 729.914063 163.046875 730.066406 C 162.828125 730.328125 162.546875 730.640625 162.136719 730.960938 C 162.113281 730.980469 162.089844 730.996094 162.066406 731.011719 C 161.925781 731.121094 161.765625 731.234375 161.582031 731.347656 C 161.132813 731.621094 160.753906 731.765625 160.605469 731.816406 C 160.582031 731.820313 160.5625 731.828125 160.539063 731.835938 C 160.539063 731.835938 160.53125 731.839844 160.53125 731.839844 C 160.515625 731.84375 160.503906 731.847656 160.492188 731.851563 C 160.480469 731.855469 160.472656 731.859375 160.460938 731.863281 C 159.921875 732.042969 159.425781 732.117188 159.019531 732.140625 L 209.671875 732.140625 C 210 732.140625 210.324219 732.101563 210.644531 732.023438 C 211.875 731.707031 214.507813 730.5625 215.617188 726.496094 L 241.929688 650.910156 C 242.554688 649.117188 241.222656 647.242188 239.324219 647.242188 "/>
<path style=" stroke:none;fill-rule:nonzero;fill:rgb(100%,0%,5.899048%);fill-opacity:1;" d="M 114.617188 717.792969 C 114.628906 717.761719 114.636719 717.730469 114.648438 717.699219 C 114.679688 717.605469 114.714844 717.515625 114.746094 717.425781 C 114.796875 717.277344 114.851563 717.125 114.902344 716.980469 C 114.972656 716.773438 115.042969 716.570313 115.117188 716.371094 C 115.203125 716.113281 115.292969 715.859375 115.382813 715.605469 C 115.488281 715.304688 115.59375 715.003906 115.699219 714.699219 C 115.824219 714.355469 115.945313 714.003906 116.066406 713.660156 C 116.203125 713.269531 116.339844 712.878906 116.476563 712.492188 C 116.628906 712.0625 116.777344 711.632813 116.929688 711.207031 C 117.089844 710.742188 117.253906 710.277344 117.414063 709.8125 C 117.589844 709.316406 117.765625 708.820313 117.941406 708.320313 C 118.125 707.796875 118.308594 707.269531 118.492188 706.742188 L 119.078125 705.082031 C 119.28125 704.503906 119.484375 703.925781 119.683594 703.347656 C 119.894531 702.75 120.105469 702.152344 120.316406 701.554688 C 120.53125 700.9375 120.746094 700.320313 120.964844 699.707031 C 121.183594 699.074219 121.40625 698.445313 121.628906 697.8125 C 121.851563 697.171875 122.078125 696.53125 122.304688 695.890625 C 122.53125 695.238281 122.761719 694.585938 122.988281 693.9375 C 123.21875 693.28125 123.449219 692.625 123.679688 691.96875 C 123.910156 691.3125 124.140625 690.652344 124.371094 689.992188 C 124.601563 689.335938 124.835938 688.675781 125.066406 688.019531 L 125.753906 686.058594 C 125.980469 685.410156 126.207031 684.761719 126.4375 684.113281 C 126.660156 683.476563 126.882813 682.835938 127.105469 682.199219 C 127.324219 681.574219 127.546875 680.949219 127.765625 680.324219 L 128.40625 678.496094 C 128.613281 677.90625 128.820313 677.316406 129.027344 676.726563 C 129.226563 676.15625 129.429688 675.589844 129.628906 675.023438 C 129.816406 674.476563 130.007813 673.933594 130.199219 673.390625 C 130.378906 672.875 130.5625 672.359375 130.742188 671.84375 L 131.253906 670.390625 C 131.410156 669.941406 131.566406 669.488281 131.726563 669.039063 C 131.871094 668.625 132.015625 668.210938 132.160156 667.800781 C 132.292969 667.425781 132.421875 667.054688 132.554688 666.679688 C 132.671875 666.351563 132.785156 666.023438 132.902344 665.691406 C 133 665.40625 133.101563 665.125 133.199219 664.839844 C 133.28125 664.605469 133.363281 664.371094 133.445313 664.136719 C 133.578125 663.757813 133.699219 663.363281 133.878906 663 L 133.902344 662.976563 L 133.90625 662.96875 L 133.914063 662.960938 C 133.949219 662.890625 133.964844 662.832031 134.003906 662.765625 C 134.351563 661.996094 135.273438 661.167969 135.648438 661.050781 L 129.941406 641.875 C 129.230469 639.433594 126.886719 637.753906 124.449219 637.753906 L 84.195313 637.753906 C 82.300781 637.753906 80.941406 639.578125 81.484375 641.394531 L 104.144531 717.546875 C 105.078125 720.25 107.109375 721.65625 109.1875 721.757813 L 109.191406 721.757813 C 111.351563 721.851563 113.554688 720.535156 114.617188 717.792969 "/>
<path style=" stroke:none;fill-rule:nonzero;fill:rgb(66.699219%,0%,8.599854%);fill-opacity:1;" d="M 135.640625 661.054688 C 135.640625 661.054688 135.644531 661.050781 135.644531 661.050781 L 135.628906 661.0625 C 135.632813 661.058594 135.636719 661.058594 135.640625 661.054688 "/>
<path style=" stroke:none;fill-rule:nonzero;fill:rgb(66.699219%,0%,8.599854%);fill-opacity:1;" d="M 151.363281 721.4375 L 151.085938 720.492188 C 151.035156 720.328125 150.988281 720.167969 150.9375 720.003906 L 141.226563 687.378906 L 134.4375 664.5625 C 134.183594 663.710938 134.269531 662.859375 134.628906 662.164063 C 134.714844 661.996094 134.816406 661.835938 134.933594 661.6875 C 134.949219 661.671875 134.960938 661.652344 134.976563 661.632813 C 135.140625 661.4375 135.335938 661.261719 135.550781 661.109375 C 135.578125 661.09375 135.601563 661.078125 135.628906 661.0625 L 135.648438 661.050781 C 135.273438 661.167969 134.351563 662 134.003906 662.765625 C 133.964844 662.832031 133.929688 662.898438 133.894531 662.96875 C 133.886719 662.980469 133.882813 662.992188 133.878906 663 C 133.699219 663.367188 133.578125 663.757813 133.445313 664.136719 C 133.363281 664.371094 133.28125 664.605469 133.199219 664.839844 C 133.101563 665.125 133 665.410156 132.902344 665.691406 C 132.785156 666.019531 132.671875 666.351563 132.554688 666.679688 C 132.421875 667.054688 132.292969 667.425781 132.160156 667.800781 C 132.015625 668.210938 131.871094 668.625 131.726563 669.039063 C 131.566406 669.492188 131.410156 669.941406 131.253906 670.390625 L 130.742188 671.84375 C 130.5625 672.359375 130.378906 672.875 130.199219 673.390625 C 130.007813 673.933594 129.816406 674.476563 129.628906 675.019531 C 129.429688 675.589844 129.226563 676.160156 129.027344 676.726563 C 128.820313 677.316406 128.613281 677.90625 128.40625 678.496094 L 127.765625 680.324219 C 127.546875 680.949219 127.324219 681.574219 127.105469 682.199219 C 126.882813 682.835938 126.660156 683.476563 126.4375 684.113281 C 126.207031 684.761719 125.980469 685.410156 125.753906 686.054688 L 125.066406 688.019531 C 124.835938 688.675781 124.601563 689.335938 124.371094 689.992188 C 124.140625 690.652344 123.910156 691.308594 123.679688 691.96875 C 123.449219 692.625 123.21875 693.28125 122.988281 693.9375 C 122.761719 694.585938 122.53125 695.238281 122.304688 695.886719 C 122.078125 696.53125 121.851563 697.171875 121.628906 697.8125 C 121.40625 698.445313 121.183594 699.074219 120.964844 699.707031 C 120.746094 700.324219 120.53125 700.9375 120.316406 701.554688 C 120.105469 702.152344 119.894531 702.75 119.683594 703.347656 C 119.484375 703.925781 119.28125 704.503906 119.078125 705.082031 L 118.492188 706.742188 C 118.308594 707.269531 118.125 707.796875 117.941406 708.324219 C 117.765625 708.820313 117.589844 709.316406 117.414063 709.8125 C 117.253906 710.277344 117.089844 710.742188 116.925781 711.207031 C 116.777344 711.632813 116.628906 712.0625 116.476563 712.492188 C 116.339844 712.878906 116.203125 713.269531 116.066406 713.660156 C 115.945313 714.003906 115.824219 714.351563 115.699219 714.703125 C 115.59375 715.003906 115.488281 715.304688 115.382813 715.605469 C 115.292969 715.859375 115.203125 716.117188 115.113281 716.371094 C 115.042969 716.574219 114.972656 716.773438 114.902344 716.976563 C 114.851563 717.125 114.796875 717.277344 114.746094 717.425781 C 114.714844 717.515625 114.679688 717.605469 114.648438 717.699219 C 114.636719 717.730469 114.628906 717.761719 114.617188 717.792969 C 113.554688 720.535156 111.351563 721.851563 109.191406 721.757813 L 109.1875 721.757813 C 109.144531 721.761719 109.105469 721.765625 109.066406 721.765625 L 151.464844 721.765625 C 151.429688 721.65625 151.398438 721.546875 151.363281 721.4375 "/>
<path style=" stroke:none;fill-rule:nonzero;fill:rgb(100%,80.39856%,0%);fill-opacity:1;" d="M 184.472656 670.539063 C 184.109375 669.230469 183.75 667.921875 183.402344 666.609375 C 183.117188 665.527344 182.78125 664.484375 182.199219 663.523438 C 181.628906 662.578125 180.851563 661.765625 179.886719 661.226563 C 179.617188 661.078125 179.335938 660.949219 179.042969 660.847656 C 178.585938 660.683594 177.808594 660.566406 177.324219 660.566406 L 137.417969 660.566406 C 136.722656 660.566406 136.125 660.75 135.640625 661.054688 C 135.636719 661.058594 135.632813 661.0625 135.628906 661.0625 C 135.601563 661.078125 135.578125 661.09375 135.554688 661.109375 C 135.335938 661.261719 135.140625 661.4375 134.976563 661.636719 C 134.960938 661.652344 134.949219 661.671875 134.933594 661.6875 C 134.816406 661.835938 134.714844 661.996094 134.628906 662.164063 C 134.269531 662.859375 134.183594 663.710938 134.4375 664.5625 L 141.226563 687.378906 L 150.9375 720.003906 L 151.425781 721.636719 L 153.269531 728.0625 C 153.390625 728.40625 154.367188 731.058594 157.058594 731.898438 C 158.378906 732.308594 159.542969 732.105469 160.136719 731.953125 C 160.222656 731.933594 160.335938 731.902344 160.460938 731.863281 C 160.472656 731.859375 160.480469 731.855469 160.492188 731.851563 C 160.507813 731.847656 160.523438 731.839844 160.539063 731.835938 C 160.5625 731.828125 160.582031 731.820313 160.605469 731.816406 C 160.753906 731.765625 161.132813 731.621094 161.582031 731.347656 C 161.765625 731.234375 161.925781 731.121094 162.066406 731.011719 C 162.355469 730.785156 162.570313 730.570313 162.734375 730.410156 C 162.839844 730.300781 162.945313 730.1875 163.046875 730.066406 C 163.179688 729.914063 163.308594 729.753906 163.4375 729.574219 C 164.199219 728.53125 164.617188 727.472656 164.699219 727.25 C 165.183594 726 165.582031 724.78125 165.929688 723.714844 C 166.121094 723.128906 166.296875 722.585938 166.464844 722.109375 L 167.71875 718.515625 C 168.246094 717.011719 168.773438 715.503906 169.296875 713.996094 L 171.117188 708.789063 C 171.773438 706.90625 172.429688 705.023438 173.089844 703.136719 L 175.136719 697.277344 C 175.8125 695.335938 176.492188 693.394531 177.171875 691.449219 C 177.816406 689.597656 178.464844 687.746094 179.113281 685.894531 C 179.699219 684.210938 180.285156 682.527344 180.875 680.847656 C 181.375 679.414063 181.875 677.980469 182.375 676.550781 C 182.757813 675.449219 183.144531 674.347656 183.527344 673.242188 L 184.105469 671.59375 C 184.15625 671.449219 184.203125 671.308594 184.253906 671.164063 C 184.328125 670.957031 184.398438 670.75 184.472656 670.542969 "/>
</g>
</svg>
